<svg width="1080" height="1080" viewBox="0 0 1080 1080" fill="none" xmlns="http://www.w3.org/2000/svg">
<circle cx="540" cy="540" r="540" fill="#CDD8FF"/>
<mask id="mask0_1156_26573" style="mask-type:alpha" maskUnits="userSpaceOnUse" x="0" y="0" width="1080" height="1080">
<circle cx="540" cy="540" r="540" fill="#A7B9FF"/>
</mask>
<g mask="url(#mask0_1156_26573)">
<path fill-rule="evenodd" clip-rule="evenodd" d="M1250.37 1007.72C1135.22 879.962 859.773 762.12 579.904 754.582C241.182 745.461 -87.1701 878.71 -179.732 1040.24C-313.774 1274.15 -313.367 1804.42 -307.452 2013.94C-305.905 2068.65 -303.987 2101.49 -303.987 2101.49H1360.66C1360.66 2101.49 1420.53 1196.5 1250.37 1007.72Z" fill="#3F69FF"/>
<path fill-rule="evenodd" clip-rule="evenodd" d="M596.076 754.152L425.813 760.266L415.371 850.382L473.99 1246.99L598.984 1733.67L686.626 1089.25L654.885 869.017L596.076 754.152Z" fill="white"/>
<path fill-rule="evenodd" clip-rule="evenodd" d="M426.034 760.339L598.984 1733.67L312.625 1122L423.567 1021.08L272.091 959.206L360.012 767.072L426.034 760.339Z" fill="#3F47FF"/>
<path fill-rule="evenodd" clip-rule="evenodd" d="M596.074 754.152C656.579 1047.39 639.291 1385 598.982 1733.67L807.418 1102.68L686.624 1002.66L795.902 920.444L686.624 760.339L596.074 754.152Z" fill="#3F47FF"/>
<path fill-rule="evenodd" clip-rule="evenodd" d="M585.287 667.645L428.554 626.388L427.972 780.802C427.972 780.802 430.59 816.663 513.955 815.426C606.159 814.058 600.703 779.66 600.703 779.66L585.287 667.645Z" fill="#FFB8C0"/>
<path fill-rule="evenodd" clip-rule="evenodd" d="M585.258 667.649L507.96 649.262C514.704 693.777 550.638 759.484 601.068 780.415L585.258 667.649Z" fill="#FF9CA0"/>
<g clip-path="url(#clip0_1156_26573)">
<path fill-rule="evenodd" clip-rule="evenodd" d="M432 655.621C432 655.621 397.491 666.687 389.921 601.677C382.353 536.669 381.372 495.238 362.518 463.212C343.968 431.697 342.096 335.94 375.701 306.229C431.841 256.591 486.524 272.261 486.524 272.261C486.524 272.261 537.24 249.24 572.595 246.858C707.424 237.768 778.711 359.468 701.987 395.291C631.949 427.994 451.919 434.316 451.919 434.316L432 655.621Z" fill="#382149"/>
<path fill-rule="evenodd" clip-rule="evenodd" d="M323.928 471.79C385.667 481.972 407.977 408.642 479.523 379.046L443.122 308.259C374.671 343.801 361.389 418.241 323.928 471.79Z" fill="#382149"/>
<path fill-rule="evenodd" clip-rule="evenodd" d="M348.516 593.153C411.048 590.612 417.319 520.767 481.008 480.771L430.405 424.285C371.003 469.019 373.796 538.153 348.516 593.153Z" fill="#382149"/>
<path fill-rule="evenodd" clip-rule="evenodd" d="M453.037 231.935C441.72 272.562 490.632 292.618 506.008 342.588L557.268 323.157C537.584 274.844 487.277 260.755 453.037 231.935Z" fill="#382149"/>
<path fill-rule="evenodd" clip-rule="evenodd" d="M432.4 539.513L431.959 656.575C482.327 673.611 534.036 688.3 588.691 697.832C588.691 697.832 728.709 726.89 731.998 600.8C735.379 471.103 715.94 408.091 715.94 408.091C635.622 398.856 556.76 407.228 465.455 416.773C458.118 417.541 450.697 415.251 443.188 414.437C340.671 403.329 338.833 536.92 432.4 539.513Z" fill="#FFB8C0"/>
<path d="M406.059 453.907C405.419 464.965 409.699 483.024 424.256 484.845" stroke="#FF6D7E" stroke-width="10.9187" stroke-linecap="round"/>
<path d="M428.153 448.48C428.153 448.48 389.681 441.168 393.322 486.663" stroke="#FF6D7E" stroke-width="10.9187" stroke-miterlimit="1.5" stroke-linecap="round" stroke-linejoin="round"/>
<path fill-rule="evenodd" clip-rule="evenodd" d="M758.596 444.552C696.032 441.68 614.36 406.248 550.74 362.453L664.769 258.815L758.596 444.552Z" fill="#382149"/>
<path fill-rule="evenodd" clip-rule="evenodd" d="M790.343 365.925C731.854 388.019 642.631 387.831 566.55 372.846L615.934 258.806C690.18 280.224 742.808 320.801 790.343 365.925Z" fill="#382149"/>
<path fill-rule="evenodd" clip-rule="evenodd" d="M774.511 307.955C690.156 285.059 636.707 277.395 550.718 314.876L585.491 257.211C652.139 239.63 726.976 262.831 774.511 307.955Z" fill="#382149"/>
<path fill-rule="evenodd" clip-rule="evenodd" d="M630.229 392.146C630.229 392.146 511.725 370.032 484.792 434.326C476.967 453.029 470.45 471.373 465.137 487.958C463.754 492.266 459.423 494.922 454.946 494.204C450.506 493.486 447.23 489.573 447.303 485.05C448.067 455.937 448.723 434.721 446.685 414.654L522.643 351.474L630.229 392.146Z" fill="#382149"/>
</g>
<path d="M587.272 519.401C594.016 519.401 599.486 511.816 599.486 502.462C599.486 493.109 594.016 485.524 587.272 485.524C580.528 485.524 575.058 493.109 575.058 502.462C575.058 511.816 580.528 519.401 587.272 519.401Z" fill="#310234"/>
<path fill-rule="evenodd" clip-rule="evenodd" d="M639.383 496.374L671.12 569.274L640.365 573.242L639.383 496.374Z" fill="#FF5F71"/>
<path fill-rule="evenodd" clip-rule="evenodd" d="M681.642 593.818C681.533 610.702 667.794 624.376 650.888 624.376C633.913 624.376 620.13 610.593 620.13 593.618H681.642V593.818Z" fill="white"/>
<path d="M684.556 493.301C669.634 488.09 664.963 496.032 664.963 496.032C664.963 496.032 673.626 479.811 687.32 478.354" stroke="#310234" stroke-width="7.57034" stroke-miterlimit="1.5" stroke-linecap="round" stroke-linejoin="round"/>
</g>
<defs>
<clipPath id="clip0_1156_26573">
<rect width="553.217" height="553.217" fill="white" transform="translate(283.892 145.962)"/>
</clipPath>
</defs>
</svg>
