<svg width="1080" height="1080" viewBox="0 0 1080 1080" fill="none" xmlns="http://www.w3.org/2000/svg">
<g clip-path="url(#clip0_1156_26533)">
<circle cx="540" cy="540" r="540" fill="#FF6D7E"/>
</g>
<mask id="mask0_1156_26533" style="mask-type:alpha" maskUnits="userSpaceOnUse" x="0" y="0" width="1080" height="1080">
<path d="M1080 540C1080 838.234 838.234 1080 540 1080C241.766 1080 0 838.234 0 540C0 241.766 241.766 0 540 0C838.234 0 1080 241.766 1080 540Z" fill="#FD463D"/>
</mask>
<g mask="url(#mask0_1156_26533)">
<path fill-rule="evenodd" clip-rule="evenodd" d="M1142.67 996.894C1041.99 855.272 791.58 734.274 539.328 726.847C141.039 715.114 -53.4475 903.209 -141.457 1071.2C-251.772 1281.72 -263.843 1713.73 -260.563 1948.35C-260.235 1971.64 -256.233 2064.1 -256.233 2064.1H1244.06C1244.06 2064.1 1248.52 1968.77 1249.11 1951.26C1257.77 1705.22 1281.12 1164.93 1142.67 996.894Z" fill="#370285"/>
<path d="M916.973 1008.96C916.973 1008.96 992.472 1095.32 992.472 1212.35C992.472 1329.38 936.512 1404.03 936.512 1404.03" stroke="#000E5D" stroke-width="14.8313" stroke-miterlimit="1.5" stroke-linecap="round" stroke-linejoin="round"/>
<path fill-rule="evenodd" clip-rule="evenodd" d="M562.253 1399.99C647.667 1278.92 725.713 1142.61 773.737 982.352L645.858 926.531C638.561 1112.37 604.091 1271.39 562.253 1399.99Z" fill="#000E5D"/>
<path fill-rule="evenodd" clip-rule="evenodd" d="M344.931 737.161L264.033 754.555L268.76 949.128L429.961 924.092L344.931 737.161Z" fill="#000E5D"/>
<path fill-rule="evenodd" clip-rule="evenodd" d="M426.624 923.802L272.65 994.725L562.252 1399.99C523.715 1233.69 499.911 1066.08 426.624 923.802Z" fill="#000E5D"/>
<path fill-rule="evenodd" clip-rule="evenodd" d="M646.274 928.751L773.736 951.676L725.85 754.155C694.749 743.165 668.479 739.453 642.591 736.251L646.274 928.751Z" fill="#000E5D"/>
<path fill-rule="evenodd" clip-rule="evenodd" d="M344.925 738.463C450.424 943.662 515.823 1168.29 562.317 1399.98C646.341 1122.19 653.917 961.566 642.588 736.17C544.178 719.541 433.05 720.705 344.925 738.463Z" fill="#FFB8C0"/>
<path fill-rule="evenodd" clip-rule="evenodd" d="M631.063 815.458H567.785C564.9 815.458 562.294 817.252 561.147 819.979L548.915 849.474C547.317 853.277 549.02 857.69 552.703 859.305C556.387 860.92 560.626 859.162 562.224 855.358L572.58 830.421H631.063C635.059 830.421 638.29 827.048 638.29 822.922C638.29 818.795 635.059 815.458 631.063 815.458Z" fill="#FF9CA0"/>
<path fill-rule="evenodd" clip-rule="evenodd" d="M413.074 815.457H476.353C479.237 815.457 481.844 817.276 482.99 820.042L495.222 849.954C496.821 853.811 495.118 858.287 491.434 859.925C487.751 861.562 483.511 859.779 481.913 855.922L471.558 830.631H413.074C409.078 830.631 405.847 827.211 405.847 823.026C405.847 818.841 409.078 815.457 413.074 815.457Z" fill="#FF9CA0"/>
<path fill-rule="evenodd" clip-rule="evenodd" d="M642.918 995.808L453.736 994.716C453.736 994.716 457.903 1006.11 459.885 1011.86C504.98 1143.22 536.365 1270.91 562.272 1404.53C606.829 1252.17 631.93 1133.87 640.969 1022.44C641.574 1014.95 642.918 995.808 642.918 995.808Z" fill="#446FFF"/>
<path fill-rule="evenodd" clip-rule="evenodd" d="M469.299 1040.21H639.396L640.891 1025.36H464.433L469.299 1040.21Z" fill="#6A8DFF"/>
<path fill-rule="evenodd" clip-rule="evenodd" d="M585.582 650.559L435.952 609.885L435.395 762.128C435.395 762.128 437.897 797.471 517.473 796.251C605.493 794.887 600.316 760.979 600.316 760.979L585.582 650.559Z" fill="#FFB8C0"/>
<path fill-rule="evenodd" clip-rule="evenodd" d="M585.548 650.564L511.741 632.436C518.204 676.323 552.501 741.099 600.664 761.734L585.548 650.564Z" fill="#FF9CA0"/>
<path fill-rule="evenodd" clip-rule="evenodd" d="M397.862 390.295C397.862 390.295 534.078 399.87 606.654 398.268C677.628 396.666 712.972 369.366 712.972 369.366C712.972 369.366 685.529 245.109 563.016 245.109C385.689 245.109 397.862 390.295 397.862 390.295Z" fill="#FFB8C0"/>
<path fill-rule="evenodd" clip-rule="evenodd" d="M742.62 792.453L754.01 815.133C805.799 852.297 807.935 926.47 779.033 960.391C727.813 956.675 681.506 922.277 694.319 841.38L681.897 816.614C652.853 810.204 609.5 778.817 599.676 737.19L588.144 652.392L435.234 612.413V741.885C392.664 750.513 390.635 662.757 337.316 537.781C266.52 371.854 333.009 230.907 461.395 226.369C461.395 226.369 542.584 186.874 601.74 199.485C771.344 235.641 714.501 369.43 714.501 369.43C711.191 412.331 690.405 509.313 721.798 591.787C763.229 700.778 773.444 744.43 742.62 792.453Z" fill="#382149"/>
<path fill-rule="evenodd" clip-rule="evenodd" d="M723.081 312.438C723.081 312.438 723.081 357.143 735.112 399.072C744.224 430.893 759.956 458.656 760.988 491.723C763.231 563.622 737.319 577.468 724.861 630.822C712.403 684.177 655.488 387.149 655.488 387.149L723.081 312.438Z" fill="#382149"/>
<path fill-rule="evenodd" clip-rule="evenodd" d="M435.662 497.956L435.235 612.436C484.496 629.097 535.074 643.463 588.5 652.785C588.5 652.785 725.465 681.203 728.668 557.892C731.978 431.054 712.971 369.431 712.971 369.431C640.004 388.05 546.998 396.649 446.233 375.635C347.496 355.044 344.15 495.422 435.662 497.956Z" fill="#FFB8C0"/>
<path fill-rule="evenodd" clip-rule="evenodd" d="M611.879 371.068C641.849 403.672 675.841 416.023 722.184 415.56C728.271 373.951 726.847 331.346 721.437 295.503L611.879 371.068Z" fill="#382149"/>
<path fill-rule="evenodd" clip-rule="evenodd" d="M449.007 343.625V476.568C511.153 470.09 566.323 431.293 589.85 381.426L449.007 343.625Z" fill="#382149"/>
<path fill-rule="evenodd" clip-rule="evenodd" d="M682.18 815.348C682.18 815.348 690.972 792.319 709.944 787.194C728.88 782.069 744.754 787.692 744.754 787.692L753.974 815.348C722.9 811.433 704.32 821.649 693.927 841.367L682.18 815.348Z" fill="#FF5F71"/>
<path d="M406.6 412.732C405.975 423.546 410.16 441.207 424.396 442.988" stroke="#FF6D7E" stroke-width="10.6781" stroke-linecap="round"/>
<path d="M428.207 407.425C428.207 407.425 390.583 400.275 394.144 444.766" stroke="#FF6D7E" stroke-width="10.6781" stroke-miterlimit="1.5" stroke-linecap="round" stroke-linejoin="round"/>
<path d="M578.997 480.243C578.997 480.243 598.794 486.128 607.984 474.63" stroke="#310234" stroke-width="8.8984" stroke-miterlimit="1.5" stroke-linecap="round" stroke-linejoin="round"/>
<path d="M678.659 463.977C678.659 463.977 698.456 471.466 707.646 456.833" stroke="#310234" stroke-width="8.8984" stroke-miterlimit="1.5" stroke-linecap="round" stroke-linejoin="round"/>
<path fill-rule="evenodd" clip-rule="evenodd" d="M643.669 460.393L674.707 531.687L644.631 535.566L643.669 460.393Z" fill="#FF5F71"/>
<path d="M628.904 566.92C628.904 566.92 641.903 578.709 662.632 575.011C683.369 571.348 689.466 559.332 689.466 559.332" stroke="#310234" stroke-width="8.8984" stroke-miterlimit="1.5" stroke-linecap="round" stroke-linejoin="round"/>
<path d="M429.5 374.968L557.352 420.243" stroke="#382149" stroke-width="7.40346" stroke-miterlimit="1.5" stroke-linecap="round" stroke-linejoin="round"/>
<path d="M589.393 515.28C614.114 515.28 634.156 490.184 634.156 459.226C634.156 428.267 614.114 403.171 589.393 403.171C564.671 403.171 544.631 428.267 544.631 459.226C544.631 490.184 564.671 515.28 589.393 515.28Z" stroke="#382149" stroke-width="7.41215" stroke-miterlimit="1.5" stroke-linecap="round" stroke-linejoin="round"/>
<path d="M697.3 498.196C720.411 498.196 739.147 473.1 739.147 442.141C739.147 411.183 720.411 386.087 697.3 386.087C674.189 386.087 655.455 411.183 655.455 442.141C655.455 473.1 674.189 498.196 697.3 498.196Z" stroke="#382149" stroke-width="7.39504" stroke-miterlimit="1.5" stroke-linecap="round" stroke-linejoin="round"/>
<path d="M631.956 442.134L655.448 437.613" stroke="#382149" stroke-width="7.40346" stroke-miterlimit="1.5" stroke-linecap="round" stroke-linejoin="round"/>
</g>
<defs>
<clipPath id="clip0_1156_26533">
<rect width="1080" height="1080" fill="white"/>
</clipPath>
</defs>
</svg>
